<svg xmlns="http://www.w3.org/2000/svg" xmlns:xlink="http://www.w3.org/1999/xlink" width="500" zoomAndPan="magnify" viewBox="0 0 375 374.999991" height="500" preserveAspectRatio="xMidYMid meet" version="1.0"><defs><clipPath id="685f65f2ef"><path d="M 103.03125 197.113281 L 155.601562 197.113281 L 155.601562 333 L 103.03125 333 Z M 103.03125 197.113281 " clip-rule="nonzero"/></clipPath><clipPath id="31f2f4ab2d"><path d="M 155.292969 247.351562 L 145.265625 261.390625 L 155.292969 259.089844 L 155.292969 332.710938 L 118.933594 332.710938 L 119.394531 230.160156 L 108.203125 237.621094 L 103.390625 232.125 L 155.292969 197.523438 Z M 155.292969 247.351562 " clip-rule="nonzero"/></clipPath><clipPath id="fd8248b47b"><path d="M 0.199219 0.519531 L 52.519531 0.519531 L 52.519531 135.878906 L 0.199219 135.878906 Z M 0.199219 0.519531 " clip-rule="nonzero"/></clipPath><clipPath id="4f06602af9"><path d="M 52.292969 50.351562 L 42.265625 64.390625 L 52.292969 62.089844 L 52.292969 135.710938 L 15.933594 135.710938 L 16.394531 33.160156 L 5.203125 40.621094 L 0.390625 35.125 L 52.292969 0.523438 Z M 52.292969 50.351562 " clip-rule="nonzero"/></clipPath><clipPath id="5d33176802"><rect x="0" width="53" y="0" height="136"/></clipPath><clipPath id="54ad6215bc"><path d="M 162 111 L 199.9375 111 L 199.9375 302.890625 L 162 302.890625 Z M 162 111 " clip-rule="nonzero"/></clipPath><clipPath id="4f28027a33"><path d="M 199.417969 162.886719 L 188.765625 177.796875 L 199.417969 175.351562 L 199.417969 277.59375 L 162.4375 302.3125 L 162.4375 258.832031 L 173.003906 261.390625 L 162.4375 243.574219 L 162.4375 136.300781 L 199.417969 111.582031 Z M 199.417969 162.886719 " clip-rule="nonzero"/></clipPath><clipPath id="bd3fdbd93f"><path d="M 0.238281 0.359375 L 37.441406 0.359375 L 37.441406 191.398438 L 0.238281 191.398438 Z M 0.238281 0.359375 " clip-rule="nonzero"/></clipPath><clipPath id="32e5eb37a5"><path d="M 37.417969 51.886719 L 26.765625 66.796875 L 37.417969 64.351562 L 37.417969 166.59375 L 0.4375 191.3125 L 0.4375 147.832031 L 11.003906 150.390625 L 0.4375 132.574219 L 0.4375 25.300781 L 37.417969 0.582031 Z M 37.417969 51.886719 " clip-rule="nonzero"/></clipPath><clipPath id="b6ec6b450e"><rect x="0" width="38" y="0" height="192"/></clipPath><clipPath id="31cb48b544"><path d="M 206.90625 42 L 244 42 L 244 273.753906 L 206.90625 273.753906 Z M 206.90625 42 " clip-rule="nonzero"/></clipPath><clipPath id="7bbcdd76d6"><path d="M 243.917969 42.292969 L 243.917969 248.4375 L 206.9375 273.15625 L 206.9375 175.488281 L 216.496094 177.796875 L 206.9375 161.679688 L 206.9375 67.011719 Z M 243.917969 42.292969 " clip-rule="nonzero"/></clipPath><clipPath id="968448a378"><path d="M 0.90625 0.238281 L 38 0.238281 L 38 231.359375 L 0.90625 231.359375 Z M 0.90625 0.238281 " clip-rule="nonzero"/></clipPath><clipPath id="caa7977b81"><path d="M 37.917969 0.292969 L 37.917969 206.4375 L 0.9375 231.15625 L 0.9375 133.488281 L 10.496094 135.796875 L 0.9375 119.679688 L 0.9375 25.011719 Z M 37.917969 0.292969 " clip-rule="nonzero"/></clipPath><clipPath id="25c811ce4d"><rect x="0" width="38" y="0" height="232"/></clipPath><clipPath id="75336f544f"><path d="M 167.003906 300 L 184.738281 300 L 184.738281 327.59375 L 167.003906 327.59375 Z M 167.003906 300 " clip-rule="nonzero"/></clipPath><clipPath id="019d0bd41b"><path d="M 179.898438 308.429688 C 179.253906 306.246094 178.238281 305.265625 176.175781 305.265625 L 176.140625 305.265625 C 174.144531 305.265625 173.050781 306.128906 173.050781 307.597656 C 173.050781 309.101562 173.953125 309.859375 176.214844 310.839844 L 179.832031 312.34375 C 183.367188 313.8125 184.5 316.410156 184.5 319.9375 C 184.5 324.636719 181.375 327.234375 176.035156 327.234375 L 175.976562 327.234375 C 171.007812 327.234375 167.855469 325.203125 167.097656 319.746094 L 171.949219 318.507812 C 172.589844 321.109375 173.789062 322.304688 176.015625 322.304688 L 176.050781 322.304688 C 178.085938 322.304688 179.101562 321.40625 179.101562 319.707031 C 179.101562 318.011719 178.238281 317.109375 176.542969 316.359375 L 172.398438 314.636719 C 169.246094 313.320312 167.625 311.136719 167.625 307.492188 C 167.625 303.167969 170.636719 300.308594 176.207031 300.308594 L 176.246094 300.308594 C 181.097656 300.308594 183.464844 302.535156 184.296875 306.925781 Z M 179.898438 308.429688 " clip-rule="nonzero"/></clipPath><clipPath id="130686fe16"><path d="M 0.0390625 0.238281 L 17.558594 0.238281 L 17.558594 27.359375 L 0.0390625 27.359375 Z M 0.0390625 0.238281 " clip-rule="nonzero"/></clipPath><clipPath id="85c6e44279"><path d="M 12.898438 8.429688 C 12.253906 6.246094 11.238281 5.265625 9.175781 5.265625 L 9.140625 5.265625 C 7.144531 5.265625 6.050781 6.128906 6.050781 7.597656 C 6.050781 9.101562 6.953125 9.859375 9.214844 10.839844 L 12.832031 12.34375 C 16.367188 13.8125 17.5 16.410156 17.5 19.9375 C 17.5 24.636719 14.375 27.234375 9.035156 27.234375 L 8.976562 27.234375 C 4.007812 27.234375 0.855469 25.203125 0.0976562 19.746094 L 4.949219 18.507812 C 5.589844 21.109375 6.789062 22.304688 9.015625 22.304688 L 9.050781 22.304688 C 11.085938 22.304688 12.101562 21.40625 12.101562 19.707031 C 12.101562 18.011719 11.238281 17.109375 9.542969 16.359375 L 5.398438 14.636719 C 2.246094 13.320312 0.625 11.136719 0.625 7.492188 C 0.625 3.167969 3.636719 0.308594 9.207031 0.308594 L 9.246094 0.308594 C 14.097656 0.308594 16.464844 2.535156 17.296875 6.925781 Z M 12.898438 8.429688 " clip-rule="nonzero"/></clipPath><clipPath id="733907cdf7"><rect x="0" width="18" y="0" height="28"/></clipPath><clipPath id="0d3730316a"><path d="M 187 300.355469 L 204.371094 300.355469 L 204.371094 326.957031 L 187 326.957031 Z M 187 300.355469 " clip-rule="nonzero"/></clipPath><clipPath id="48172d03eb"><path d="M 204.078125 300.75 L 204.078125 305.9375 L 198.328125 305.9375 L 198.328125 326.785156 L 192.949219 326.785156 L 192.949219 305.949219 L 187.195312 305.949219 L 187.195312 300.761719 Z M 204.078125 300.75 " clip-rule="nonzero"/></clipPath><clipPath id="7aac98dde1"><path d="M 0 0.71875 L 17.238281 0.71875 L 17.238281 26.878906 L 0 26.878906 Z M 0 0.71875 " clip-rule="nonzero"/></clipPath><clipPath id="b3cb09e64d"><path d="M 17.078125 0.75 L 17.078125 5.9375 L 11.328125 5.9375 L 11.328125 26.785156 L 5.949219 26.785156 L 5.949219 5.949219 L 0.195312 5.949219 L 0.195312 0.761719 Z M 17.078125 0.75 " clip-rule="nonzero"/></clipPath><clipPath id="15fa42a2f9"><rect x="0" width="18" y="0" height="27"/></clipPath><clipPath id="7e4b0616b5"><path d="M 215.140625 300.355469 L 234 300.355469 L 234 327.59375 L 215.140625 327.59375 Z M 215.140625 300.355469 " clip-rule="nonzero"/></clipPath><clipPath id="added8759b"><path d="M 228.339844 300.75 L 233.679688 300.75 L 233.679688 318.097656 C 233.679688 324.195312 230.332031 327.234375 224.648438 327.234375 L 224.609375 327.234375 C 218.921875 327.234375 215.574219 324.183594 215.574219 318.097656 L 215.574219 300.75 L 220.917969 300.75 L 220.917969 317.789062 C 220.917969 320.761719 222.421875 322.113281 224.609375 322.113281 L 224.648438 322.113281 C 226.863281 322.113281 228.328125 320.761719 228.328125 317.789062 Z M 228.339844 300.75 " clip-rule="nonzero"/></clipPath><clipPath id="ad1adaaced"><path d="M 0.519531 0.71875 L 18.761719 0.71875 L 18.761719 27.359375 L 0.519531 27.359375 Z M 0.519531 0.71875 " clip-rule="nonzero"/></clipPath><clipPath id="636ea357ea"><path d="M 13.339844 0.75 L 18.679688 0.75 L 18.679688 18.097656 C 18.679688 24.195312 15.332031 27.234375 9.648438 27.234375 L 9.609375 27.234375 C 3.921875 27.234375 0.574219 24.183594 0.574219 18.097656 L 0.574219 0.75 L 5.917969 0.75 L 5.917969 17.789062 C 5.917969 20.761719 7.421875 22.113281 9.609375 22.113281 L 9.648438 22.113281 C 11.863281 22.113281 13.328125 20.761719 13.328125 17.789062 Z M 13.339844 0.75 " clip-rule="nonzero"/></clipPath><clipPath id="aeb5fc9cae"><rect x="0" width="19" y="0" height="28"/></clipPath><clipPath id="116735f586"><path d="M 238.574219 300.355469 L 256 300.355469 L 256 326.957031 L 238.574219 326.957031 Z M 238.574219 300.355469 " clip-rule="nonzero"/></clipPath><clipPath id="110a69586c"><path d="M 250.574219 309.179688 C 250.574219 306.925781 249.367188 305.792969 246.816406 305.792969 L 244.21875 305.792969 L 244.21875 314.867188 L 246.816406 314.867188 C 249.375 314.867188 250.574219 313.773438 250.574219 311.519531 Z M 246.816406 300.75 C 252.875 300.75 255.953125 303.878906 255.953125 309.179688 L 255.953125 311.507812 C 255.953125 316.8125 252.867188 319.9375 246.816406 319.9375 L 244.21875 319.9375 L 244.21875 326.785156 L 238.875 326.785156 L 238.875 300.75 Z M 246.816406 300.75 " clip-rule="nonzero"/></clipPath><clipPath id="5d9524fccd"><path d="M 0.800781 0.71875 L 18 0.71875 L 18 26.878906 L 0.800781 26.878906 Z M 0.800781 0.71875 " clip-rule="nonzero"/></clipPath><clipPath id="1e2da5a62a"><path d="M 12.574219 9.179688 C 12.574219 6.925781 11.367188 5.792969 8.816406 5.792969 L 6.21875 5.792969 L 6.21875 14.867188 L 8.816406 14.867188 C 11.375 14.867188 12.574219 13.773438 12.574219 11.519531 Z M 8.816406 0.75 C 14.875 0.75 17.953125 3.878906 17.953125 9.179688 L 17.953125 11.507812 C 17.953125 16.8125 14.867188 19.9375 8.816406 19.9375 L 6.21875 19.9375 L 6.21875 26.785156 L 0.875 26.785156 L 0.875 0.75 Z M 8.816406 0.75 " clip-rule="nonzero"/></clipPath><clipPath id="9b177ac81c"><rect x="0" width="18" y="0" height="27"/></clipPath></defs><g clip-path="url(#685f65f2ef)"><g clip-path="url(#31f2f4ab2d)"><g transform="matrix(1, 0, 0, 1, 103, 197)"><g clip-path="url(#5d33176802)"><g clip-path="url(#fd8248b47b)"><g clip-path="url(#4f06602af9)"><rect x="-185.5" width="540" fill="#37b34a" height="539.999987" y="-279.499998" fill-opacity="1"/></g></g></g></g></g></g><g clip-path="url(#54ad6215bc)"><g clip-path="url(#4f28027a33)"><g transform="matrix(1, 0, 0, 1, 162, 111)"><g clip-path="url(#b6ec6b450e)"><g clip-path="url(#bd3fdbd93f)"><g clip-path="url(#32e5eb37a5)"><rect x="-244.5" width="540" fill="#00a545" height="539.999987" y="-193.499998" fill-opacity="1"/></g></g></g></g></g></g><g clip-path="url(#31cb48b544)"><g clip-path="url(#7bbcdd76d6)"><g transform="matrix(1, 0, 0, 1, 206, 42)"><g clip-path="url(#25c811ce4d)"><g clip-path="url(#968448a378)"><g clip-path="url(#caa7977b81)"><rect x="-288.5" width="540" fill="#006838" height="539.999987" y="-124.499998" fill-opacity="1"/></g></g></g></g></g></g><g clip-path="url(#75336f544f)"><g clip-path="url(#019d0bd41b)"><g transform="matrix(1, 0, 0, 1, 167, 300)"><g clip-path="url(#733907cdf7)"><g clip-path="url(#130686fe16)"><g clip-path="url(#85c6e44279)"><rect x="-249.5" width="540" fill="#37b34a" height="539.999987" y="-382.499998" fill-opacity="1"/></g></g></g></g></g></g><g clip-path="url(#0d3730316a)"><g clip-path="url(#48172d03eb)"><g transform="matrix(1, 0, 0, 1, 187, 300)"><g clip-path="url(#15fa42a2f9)"><g clip-path="url(#7aac98dde1)"><g clip-path="url(#b3cb09e64d)"><rect x="-269.5" width="540" fill="#37b34a" height="539.999987" y="-382.499998" fill-opacity="1"/></g></g></g></g></g></g><g clip-path="url(#7e4b0616b5)"><g clip-path="url(#added8759b)"><g transform="matrix(1, 0, 0, 1, 215, 300)"><g clip-path="url(#aeb5fc9cae)"><g clip-path="url(#ad1adaaced)"><g clip-path="url(#636ea357ea)"><rect x="-297.5" width="540" fill="#006838" height="539.999987" y="-382.499998" fill-opacity="1"/></g></g></g></g></g></g><g clip-path="url(#116735f586)"><g clip-path="url(#110a69586c)"><g transform="matrix(1, 0, 0, 1, 238, 300)"><g clip-path="url(#9b177ac81c)"><g clip-path="url(#5d9524fccd)"><g clip-path="url(#1e2da5a62a)"><rect x="-320.5" width="540" fill="#006838" height="539.999987" y="-382.499998" fill-opacity="1"/></g></g></g></g></g></g></svg>